#define chat_width 16
#define chat_height 16
static unsigned char chat_bits[] = {
   0x00, 0x00, 0x00, 0x00, 0x00, 0x00, 0x00, 0x00, 0xe0, 0x0f, 0x38, 0x38,
   0x0c, 0x60, 0x0c, 0x60, 0x38, 0x38, 0xfc, 0x0f, 0x0e, 0x00, 0x02, 0x00,
   0x00, 0x00, 0x00, 0x00, 0x00, 0x00, 0x00, 0x00 };
