#define fan_width 16
#define fan_height 16
static unsigned char fan_bits[] = {
   0x00, 0x00, 0x00, 0x06, 0x08, 0x1f, 0x8c, 0x3f, 0x9e, 0x3f, 0x9f, 0x7f,
   0xff, 0x7f, 0xff, 0x03, 0xff, 0x03, 0xfe, 0x0f, 0x9c, 0x1f, 0x80, 0x1f,
   0xc0, 0x1f, 0xc0, 0x0f, 0xe0, 0x07, 0x00, 0x00 };
