#define mail_width 16
#define mail_height 16
static unsigned char mail_bits[] = {
   0x00, 0x00, 0x00, 0x00, 0x00, 0x00, 0x00, 0x00, 0xf8, 0x3f, 0xe8, 0x2f,
   0xc8, 0x27, 0x98, 0x33, 0x38, 0x39, 0x78, 0x3c, 0xf8, 0x3e, 0xf8, 0x3f,
   0x00, 0x00, 0x00, 0x00, 0x00, 0x00, 0x00, 0x00 };
